<svg xmlns="http://www.w3.org/2000/svg" viewBox="0 0 120 120" role="img" aria-label="LPNW">
  <style>
    .lpnw-primary { fill: #1B2A4A; }
    .lpnw-accent { fill: #E8A317; }
    @media (prefers-color-scheme: dark) {
      .lpnw-primary { fill: #E8EDF5; }
    }
  </style>
  <rect class="lpnw-accent" x="14" y="56" width="92" height="5" rx="2.5"/>
  <path class="lpnw-primary" d="M16 18h10v38h26v10H16z"/>
  <path class="lpnw-primary" d="M66 18H98V46H76V66H66z"/>
  <path class="lpnw-primary" d="M16 72h10v40h-10zM60 72h10v40h-10zM26 72L36 72 70 112 60 112z"/>
  <path class="lpnw-primary" d="M69 112L81 112 91 72 101 112 111 112 118 74 108 74 102 95 92 66 82 95 75 74 67 74 69 112z"/>
</svg>
