<svg xmlns="http://www.w3.org/2000/svg" viewBox="0 0 120 120" role="img" aria-hidden="true">
	<defs>
		<linearGradient id="lpnw-tile" x1="60" y1="8" x2="60" y2="120" gradientUnits="userSpaceOnUse">
			<stop stop-color="#243A5E"/>
			<stop offset="0.45" stop-color="#1B2A4A"/>
			<stop offset="1" stop-color="#141E36"/>
		</linearGradient>
		<linearGradient id="lpnw-gold" x1="60" y1="87" x2="60" y2="98" gradientUnits="userSpaceOnUse">
			<stop stop-color="#F5C04A"/>
			<stop offset="0.55" stop-color="#E8A317"/>
			<stop offset="1" stop-color="#C78F0F"/>
		</linearGradient>
		<linearGradient id="lpnw-sheen" x1="60" y1="14" x2="60" y2="48" gradientUnits="userSpaceOnUse">
			<stop stop-color="#FFFFFF" stop-opacity="0.12"/>
			<stop offset="1" stop-color="#FFFFFF" stop-opacity="0"/>
		</linearGradient>
	</defs>
	<rect width="120" height="120" rx="28" ry="28" fill="url(#lpnw-tile)"/>
	<ellipse cx="60" cy="36" rx="42" ry="20" fill="url(#lpnw-sheen)"/>
	<path fill="#F7F8FA" d="M26 86V57h4v-4h3L35 47h10l2 6h3v4h4v29H26z"/>
	<path fill="#F7F8FA" d="M52 86V39l8-7 8 7v47H52z"/>
	<path fill="#F7F8FA" d="M72 86V51h11v8h8v7h7v20H72z"/>
	<rect x="23" y="84" width="74" height="1" rx="0.5" fill="#F7F8FA" opacity="0.18"/>
	<rect x="14" y="88" width="92" height="9" rx="4.5" fill="url(#lpnw-gold)"/>
	<rect x="17" y="89" width="86" height="1.25" rx="0.5" fill="#FFFFFF" opacity="0.2"/>
</svg>
