<svg width="1200" height="630" viewBox="0 0 1200 630" xmlns="http://www.w3.org/2000/svg">
  <defs>
    <linearGradient id="bgGradient" x1="0%" y1="0%" x2="100%" y2="100%">
      <stop offset="0%" style="stop-color:#000000;stop-opacity:1" />
      <stop offset="50%" style="stop-color:#1a1a1a;stop-opacity:1" />
      <stop offset="100%" style="stop-color:#000000;stop-opacity:1" />
    </linearGradient>
    <linearGradient id="textGradient" x1="0%" y1="0%" x2="100%" y2="0%">
      <stop offset="0%" style="stop-color:#ffffff;stop-opacity:1" />
      <stop offset="50%" style="stop-color:#ffcc00;stop-opacity:1" />
      <stop offset="100%" style="stop-color:#ffffff;stop-opacity:1" />
    </linearGradient>
  </defs>
  
  <!-- Background -->
  <rect width="1200" height="630" fill="url(#bgGradient)"/>
  
  <!-- Grid pattern -->
  <g opacity="0.1">
    <line x1="0" y1="0" x2="1200" y2="0" stroke="#ffffff" stroke-width="1"/>
    <line x1="0" y1="126" x2="1200" y2="126" stroke="#ffffff" stroke-width="1"/>
    <line x1="0" y1="252" x2="1200" y2="252" stroke="#ffffff" stroke-width="1"/>
    <line x1="0" y1="378" x2="1200" y2="378" stroke="#ffffff" stroke-width="1"/>
    <line x1="0" y1="504" x2="1200" y2="504" stroke="#ffffff" stroke-width="1"/>
    <line x1="0" y1="630" x2="1200" y2="630" stroke="#ffffff" stroke-width="1"/>
    
    <line x1="0" y1="0" x2="0" y2="630" stroke="#ffffff" stroke-width="1"/>
    <line x1="240" y1="0" x2="240" y2="630" stroke="#ffffff" stroke-width="1"/>
    <line x1="480" y1="0" x2="480" y2="630" stroke="#ffffff" stroke-width="1"/>
    <line x1="720" y1="0" x2="720" y2="630" stroke="#ffffff" stroke-width="1"/>
    <line x1="960" y1="0" x2="960" y2="630" stroke="#ffffff" stroke-width="1"/>
    <line x1="1200" y1="0" x2="1200" y2="630" stroke="#ffffff" stroke-width="1"/>
  </g>
  
  <!-- Main title -->
  <text x="600" y="250" font-family="Inter, Arial, sans-serif" font-size="72" font-weight="900" text-anchor="middle" fill="url(#textGradient)">
    NORTHWEST
  </text>
  
  <!-- Subtitle -->
  <text x="600" y="320" font-family="Inter, Arial, sans-serif" font-size="36" font-weight="400" text-anchor="middle" fill="#ffffff" opacity="0.9">
    PROPERTY & LAND
  </text>
  
  <!-- Tagline -->
  <text x="600" y="380" font-family="Inter, Arial, sans-serif" font-size="24" font-weight="300" text-anchor="middle" fill="#ffffff" opacity="0.7">
    Redefining Real Estate in the Digital Age
  </text>
  
  <!-- Location -->
  <text x="600" y="450" font-family="Inter, Arial, sans-serif" font-size="18" font-weight="400" text-anchor="middle" fill="#ffcc00" opacity="0.8">
    Manchester • Liverpool • Cheshire
  </text>
  
  <!-- Decorative elements -->
  <circle cx="200" cy="150" r="4" fill="#ffcc00" opacity="0.6"/>
  <circle cx="1000" cy="150" r="4" fill="#ffcc00" opacity="0.6"/>
  <circle cx="200" cy="480" r="4" fill="#ffcc00" opacity="0.6"/>
  <circle cx="1000" cy="480" r="4" fill="#ffcc00" opacity="0.6"/>
</svg>